<?xml version="1.0" encoding="utf-8"?>
<!-- Generator: Adobe Illustrator 21.0.2, SVG Export Plug-In . SVG Version: 6.00 Build 0)  -->
<svg version="1.1" id="Layer_1" xmlns="http://www.w3.org/2000/svg" xmlns:xlink="http://www.w3.org/1999/xlink" x="0px" y="0px"
	 viewBox="0 0 87.1 86.1" style="enable-background:new 0 0 87.1 86.1;" xml:space="preserve">
<style type="text/css">
	.st0{fill:#231F20;}
</style>
<path class="st0" d="M41.9,55.3l-18-22.9v-13h6v9.9l18,22.9v9.2h5.9L45,72.8l-9-11.4h5.9V55.3z M60.2,55.3l-18-22.9v-13h6v9.9
	l18,22.9v9.2h5.9l-8.9,11.4l-9-11.4h5.9V55.3z M56,30.9l4.3,4.2l5.4-5.4V19.5h-6v7.8L56,30.9z M35.8,61.4L27,72.8l-9-11.4h5.9v-9.2
	l5.4-6.9l4.3,5.4l-3.7,4.6v6.1H35.8z"/>
</svg>
